<svg width="9" height="11" viewBox="0 0 9 11" fill="none" xmlns="http://www.w3.org/2000/svg">
<path fill-rule="evenodd" clip-rule="evenodd" d="M4.5 0V2.7797C4.5 3.0129 4.5 3.24005 4.52587 3.42705C4.55456 3.6377 4.62544 3.87805 4.82963 4.0777C5.03381 4.27735 5.27963 4.34665 5.49563 4.3747C5.68688 4.4 5.91863 4.4 6.15713 4.4H9V7.7C9 9.2554 9 10.0337 8.50556 10.5166C8.01169 11 7.21575 11 5.625 11H3.375C1.78425 11 0.988313 11 0.494438 10.5166C1.00583e-07 10.0337 0 9.2554 0 7.7V3.3C0 1.7446 1.00583e-07 0.96635 0.494438 0.48345C0.988313 -3.27826e-08 1.78425 0 3.375 0H4.5ZM5.625 0.00275006V2.75C5.625 3.025 5.62612 3.1757 5.64075 3.2802V3.28405L5.64525 3.2846C5.75213 3.2989 5.90625 3.3 6.1875 3.3H8.99719C8.99156 3.0734 8.973 2.9238 8.9145 2.78465C8.829 2.5828 8.66644 2.4233 8.34075 2.1054L6.84675 0.6446C6.52163 0.3267 6.35906 0.1672 6.15206 0.0836C6.00975 0.02585 5.85675 0.00825006 5.625 0.00275006Z" fill="white"/>
</svg>
