<svg width="9" height="11" viewBox="0 0 9 11" fill="none" xmlns="http://www.w3.org/2000/svg">
<path d="M0 1.20312C0 0.539 0.539 0 1.20312 0H5.731C6.05 0 6.35594 0.1265 6.58144 0.352688L8.58481 2.35606C8.811 2.58156 8.9375 2.8875 8.9375 3.2065V9.79688C8.9375 10.116 8.81074 10.422 8.58511 10.6476C8.35948 10.8732 8.05346 11 7.73438 11H1.20312C0.884036 11 0.578017 10.8732 0.352387 10.6476C0.126758 10.422 0 10.116 0 9.79688V1.20312ZM1.20312 1.03125C1.15754 1.03125 1.11382 1.04936 1.08159 1.08159C1.04936 1.11382 1.03125 1.15754 1.03125 1.20312V9.79688C1.03125 9.89175 1.10825 9.96875 1.20312 9.96875H7.73438C7.77996 9.96875 7.82368 9.95064 7.85591 9.91841C7.88814 9.88618 7.90625 9.84246 7.90625 9.79688V4.125H6.01562C5.69654 4.125 5.39052 3.99824 5.16489 3.77261C4.93926 3.54698 4.8125 3.24096 4.8125 2.92188V1.03125H1.20312ZM5.84375 1.07388V2.92188C5.84375 3.01675 5.92075 3.09375 6.01562 3.09375H7.86362L7.85606 3.08481L5.85269 1.08144L5.84375 1.07388Z" fill="white"/>
</svg>
