<svg width="13" height="11" viewBox="0 0 13 11" fill="none" xmlns="http://www.w3.org/2000/svg">
<path d="M12.6722 4.27778C12.7187 4.27778 12.7647 4.28701 12.8071 4.30487C12.8496 4.32273 12.8874 4.3488 12.9182 4.38135C12.9489 4.41389 12.9719 4.45217 12.9856 4.49364C12.9992 4.5351 13.0033 4.5788 12.9974 4.62183L12.9862 4.67072L11.0914 10.5643C11.0548 10.6784 10.9831 10.78 10.8852 10.8567C10.7874 10.9333 10.6676 10.9817 10.5407 10.9957L10.464 11H1.31128C1.0552 11.0005 0.804604 10.9308 0.590731 10.7996C0.572767 10.7539 0.566919 10.7048 0.573684 10.6566L0.58483 10.6064L2.48225 4.7135C2.51889 4.59946 2.59047 4.49788 2.68819 4.42124C2.78591 4.34459 2.90552 4.29622 3.03233 4.28205L3.11035 4.27778H12.6722ZM4.93041 1.93217e-07C5.10709 -9.2403e-05 5.28197 0.0330974 5.44455 0.0975768C5.60713 0.162056 5.75405 0.256495 5.87649 0.375222L5.95517 0.458944L6.8711 1.52778H11.1459C11.4767 1.52768 11.7953 1.64414 12.0379 1.8538C12.2805 2.06347 12.4291 2.35085 12.4539 2.65833L12.4571 2.75V3.05555H3.11035C2.70836 3.05555 2.31602 3.17035 1.98615 3.38451C1.65629 3.59866 1.40474 3.90188 1.26538 4.25333L1.22605 4.36211L6.57396e-08 8.17055V1.22222C-0.000104626 0.91387 0.124838 0.616876 0.349781 0.390776C0.574725 0.164677 0.883044 0.0261822 1.21293 0.00305582L1.31128 1.93217e-07H4.93041Z" fill="white"/>
</svg>
